<?xml version="1.0" encoding="UTF-8"?>
<svg width="242px" height="424px" viewBox="0 0 242 424" version="1.1" xmlns="http://www.w3.org/2000/svg" xmlns:xlink="http://www.w3.org/1999/xlink">
    <!-- Generator: Sketch 43.2 (39069) - http://www.bohemiancoding.com/sketch -->
    <title>Group Copy</title>
    <desc>Created with Sketch.</desc>
    <defs></defs>
    <g id="Gouped-Shadow-Copy" stroke="none" stroke-width="1" fill="none" fill-rule="evenodd">
        <g id="Group-Copy" transform="translate(5.785156, 0.000000)">
            <polygon id="Path-5" fill="#FFFFFF" points="73.5 117 180.5 118 158 136.5 156.5 230.5 226 338.5 227.5 375.5 0.5 374 1 350.5 75.5 225"></polygon>
            <g id="Group-2">
                <rect id="Rectangle" fill="#494949" x="90.9414062" y="131.661985" width="50" height="6" rx="3"></rect>
                <circle id="Oval" stroke="#00DADA" stroke-width="8" cx="90.9414062" cy="51.796875" r="24.5"></circle>
                <circle id="Oval-Copy" fill="#00DADA" cx="137.941406" cy="91.7070312" r="24.5"></circle>
                <circle id="Oval-Copy-2" fill="#00DADA" cx="126.732422" cy="14.0058594" r="13.2910156"></circle>
                <circle id="Oval-Copy-3" stroke="#00DADA" stroke-width="5" cx="152.384779" cy="33.3535027" r="7.05662768"></circle>
                <path d="M93.3281509,307.756259 C93.3281509,307.756259 130.328151,306.800781 145.328151,287.800781 C160.328151,268.800781 188.828151,284.256259 188.828151,284.256259 L197.328151,298.256259 L157.328151,322.756259 L93.3281509,307.756259 Z" id="Path-3" fill="#006868"></path>
                <path d="M41.9414062,286.300781 C46.331249,282.443041 69.9414062,280.800781 87.4414062,286.300781 C104.941406,291.800781 138.441406,315.300781 139.941406,316.300781 C141.441406,317.300781 147.417389,324.106308 164.441406,315.300781 C181.465424,306.495255 192.441406,294.800781 192.441406,294.800781 C192.441406,294.800781 216.313596,330.527661 221.441406,342.800781 C226.569217,355.073901 227.941406,367.300781 227.941406,367.300781 L6.44140625,367.300781 C6.44140625,367.300781 -3.44364357,368.740316 6.44140625,341.300781 C16.3264561,313.861246 37.5515635,290.158522 41.9414062,286.300781 Z" id="Path-2" fill="#00DADA"></path>
                <polygon id="Path-4" fill="#494949" points="1.94140625 367.300781 232.441406 367.300781 217.441406 401.800781 174.941406 414.800781 115.941406 418.300781 49.4414063 414.800781 14.4414063 396.300781"></polygon>
                <path d="M74.0073894,116.207031 L74.0073894,229.707031 C74.0073894,229.707031 33.1491755,291.800781 14.6491755,323.800781 C-3.85082448,355.800781 0.149175522,369.300781 3.14917552,378.800781 C6.14917552,388.300781 27.924735,410.958591 49.1491755,414.800781 C74.0073894,419.300781 155.507389,418.800781 187.007389,412.707031 C218.507389,406.613281 224.149176,398.300781 229.149176,378.800781 C234.149176,359.300781 221.649176,331.800781 217.149176,323.800781 C212.649176,315.800781 155.507389,229.707031 155.507389,229.707031 L157.507389,136.707031 L180.507389,116.207031" id="Path-Copy" stroke="#4A4A4A" stroke-width="11"></path>
                <circle id="Oval-2" fill="#FFFFFF" cx="115.441406" cy="392.800781" r="17.3820731"></circle>
            </g>
        </g>
    </g>
</svg>